<?xml version="1.0" encoding="UTF-8" standalone="no"?>
<!DOCTYPE svg PUBLIC "-//W3C//DTD SVG 1.1//EN" "http://www.w3.org/Graphics/SVG/1.1/DTD/svg11.dtd">
<svg width="100%" height="100%" viewBox="0 0 13 13" version="1.1" xmlns="http://www.w3.org/2000/svg" xmlns:xlink="http://www.w3.org/1999/xlink" xml:space="preserve" xmlns:serif="http://www.serif.com/" style="fill-rule:evenodd;clip-rule:evenodd;stroke-linejoin:round;stroke-miterlimit:2;">
    <path d="M12.083,0.283C12.46,0.66 12.46,1.272 12.083,1.649L3.298,10.434L7.245,10.434C7.779,10.434 8.211,10.867 8.211,11.4C8.211,11.934 7.779,12.366 7.245,12.366L0.966,12.366C0.719,12.366 0.472,12.272 0.283,12.083C0.094,11.895 0,11.647 0,11.4L0,5.121C0,4.587 0.433,4.155 0.966,4.155C1.5,4.155 1.932,4.587 1.932,5.121L1.932,9.068L10.717,0.283C11.094,-0.094 11.706,-0.094 12.083,0.283Z"/>
</svg>
