<svg width="14" height="14" viewBox="0 0 14 14" fill="none" xmlns="http://www.w3.org/2000/svg">
<path d="M7.00041 5.76279L12.506 0.256906C12.6699 0.0924447 12.8925 1.4594e-10 13.1247 0C13.3568 -1.4594e-10 13.5795 0.0924447 13.7433 0.256906C13.9076 0.420835 14 0.643404 14 0.875509C14 1.10761 13.9076 1.33018 13.7433 1.49411L8.23711 7L13.7427 12.5053C14.0846 12.8471 14.0869 13.3984 13.7427 13.7425C13.5788 13.9068 13.3562 13.9992 13.1241 13.9992C12.892 13.9992 12.6694 13.9068 12.5055 13.7425L7.00041 8.23662L1.49478 13.7431C1.33092 13.9076 1.10831 14 0.876144 14C0.643977 14 0.421367 13.9076 0.257505 13.7431C0.0931772 13.5792 0.00082624 13.3566 0.00082624 13.1245C0.00082624 12.8924 0.0931772 12.6698 0.257505 12.5059L5.76372 7L0.256921 1.4947C0.0924502 1.33084 1.45948e-10 1.10825 0 0.876092C-1.45948e-10 0.643939 0.0924502 0.421342 0.256921 0.257489C0.42086 0.0931717 0.643442 0.000826191 0.875561 0.000826191C1.10768 0.000826191 1.33026 0.0931717 1.4942 0.257489L7.00041 5.76338V5.76279Z" fill="white"/>
</svg>
